<svg xmlns="http://www.w3.org/2000/svg" version="1.1" xmlns:xlink="http://www.w3.org/1999/xlink" xmlns:svgjs="http://svgjs.com/svgjs" width="23" height="23" x="0" y="0" viewBox="0 0 128 128" style="enable-background:new 0 0 512 512" xml:space="preserve" class=""><g><g><path d="M122.237,61.856,102.075,41.694a1.75,1.75,0,0,0-2.474,0L79.439,61.856a1.75,1.75,0,0,0,1.237,2.988h9.695V121a1.749,1.749,0,0,0,1.75,1.75h17.434a1.75,1.75,0,0,0,1.75-1.75V64.844H121a1.75,1.75,0,0,0,1.237-2.988Zm-12.682-.512a1.75,1.75,0,0,0-1.75,1.75V119.25H93.871V63.094a1.75,1.75,0,0,0-1.75-1.75H84.9l15.937-15.938,15.937,15.938Z" fill="#000000" data-original="#000000" class=""></path><path d="M31.717,91.993H14.283a1.749,1.749,0,0,0-1.75,1.75V121a1.749,1.749,0,0,0,1.75,1.75H31.717a1.749,1.749,0,0,0,1.75-1.75V93.743A1.749,1.749,0,0,0,31.717,91.993Zm-1.75,27.257H16.033V95.493H29.967Z" fill="#000000" data-original="#000000" class=""></path><path d="M57.664,81.776H40.229a1.75,1.75,0,0,0-1.75,1.75V121a1.749,1.749,0,0,0,1.75,1.75H57.664a1.75,1.75,0,0,0,1.75-1.75V83.526A1.751,1.751,0,0,0,57.664,81.776Zm-1.75,37.474H41.979V85.276H55.914Z" fill="#000000" data-original="#000000" class=""></path><path d="M83.609,71.56H66.174a1.75,1.75,0,0,0-1.75,1.75V121a1.75,1.75,0,0,0,1.75,1.75H83.609a1.749,1.749,0,0,0,1.75-1.75V73.31A1.749,1.749,0,0,0,83.609,71.56Zm-1.75,47.69H67.924V75.06H81.859Z" fill="#B6B6B6" data-original="#000000" class=""></path></g></g></svg>